<?xml version="1.0" encoding="UTF-8" standalone="no"?>
<svg
   xmlns:dc="http://purl.org/dc/elements/1.1/"
   xmlns:cc="http://creativecommons.org/ns#"
   xmlns:rdf="http://www.w3.org/1999/02/22-rdf-syntax-ns#"
   xmlns:svg="http://www.w3.org/2000/svg"
   xmlns="http://www.w3.org/2000/svg"
   viewBox="0 0 1122.52 793.70135"
   height="793.70135"
   width="1122.52"
   xml:space="preserve"
   id="svg2"
   version="1.1"><metadata
     id="metadata8"><rdf:RDF><cc:Work
         rdf:about=""><dc:format>image/svg+xml</dc:format><dc:type
           rdf:resource="http://purl.org/dc/dcmitype/StillImage" /></cc:Work></rdf:RDF></metadata><defs
     id="defs6"><clipPath
       id="clipPath18"
       clipPathUnits="userSpaceOnUse"><path
         id="path16"
         d="M 0,595.276 H 841.89 V 0 H 0 Z" /></clipPath></defs><g
     transform="matrix(1.3333333,0,0,-1.3333333,0,793.70133)"
     id="g10"><g
       id="g12"><g
         clip-path="url(#clipPath18)"
         id="g14"><g
           transform="translate(733.4365,287.861)"
           id="g20"><path
             id="path22"
             style="fill:#666666;fill-opacity:1;fill-rule:nonzero;stroke:none"
             d="m 0,0 c -10.896,-16.483 -21.651,-33.016 -32.09,-49.734 -5.257,-8.333 -10.391,-16.74 -15.458,-25.177 -5.102,-8.415 -10.088,-16.896 -14.928,-25.449 -4.837,-8.554 -9.65,-17.115 -14.198,-25.804 -4.57,-8.677 -8.911,-17.459 -13.059,-26.306 -4.107,-8.864 -7.969,-17.824 -11.323,-26.923 -3.325,-9.097 -6.246,-18.336 -7.993,-27.663 l -0.962,-5.134 -4.939,1.744 c -1.781,0.629 -3.739,1.265 -5.64,1.863 -1.915,0.609 -3.844,1.194 -5.778,1.766 -3.873,1.132 -7.772,2.205 -11.69,3.213 -7.838,2.003 -15.731,3.853 -23.681,5.441 -7.948,1.594 -15.944,2.978 -23.975,4.13 -8.024,1.202 -16.085,2.18 -24.17,2.954 -4.044,0.354 -8.091,0.708 -12.146,0.945 -4.051,0.335 -8.111,0.483 -12.171,0.704 -8.125,0.317 -16.261,0.38 -24.404,0.284 -16.291,-0.229 -32.576,-1.541 -48.832,-3.644 7.972,1.876 16.014,3.581 24.139,4.791 8.11,1.353 16.295,2.191 24.494,2.916 16.41,1.29 32.935,1.539 49.408,0.611 8.235,-0.465 16.461,-1.141 24.667,-2.047 8.199,-0.967 16.368,-2.194 24.503,-3.625 8.131,-1.454 16.243,-3.063 24.278,-5.045 4.019,-0.983 8.025,-2.034 12.02,-3.151 4.017,-1.131 7.923,-2.297 12.005,-3.714 l -5.901,-3.39 c 1.861,10.089 4.853,19.759 8.364,29.161 1.753,4.703 3.631,9.345 5.598,13.939 1.99,4.583 4.08,9.113 6.23,13.607 4.292,8.993 8.953,17.78 13.778,26.458 4.839,8.669 9.801,17.258 15.017,25.684 5.211,8.43 10.557,16.767 16.011,25.025 5.483,8.24 11.131,16.365 16.835,24.443 C -24.476,-31.048 -12.639,-15.201 0,0" /></g><g
           transform="translate(110.522,287.861)"
           id="g24"><path
             id="path26"
             style="fill:#666666;fill-opacity:1;fill-rule:nonzero;stroke:none"
             d="m 0,0 c 12.638,-15.201 24.476,-31.048 35.991,-47.127 5.705,-8.078 11.352,-16.203 16.835,-24.443 5.455,-8.258 10.8,-16.595 16.011,-25.025 5.216,-8.426 10.178,-17.015 15.017,-25.684 4.825,-8.678 9.486,-17.465 13.778,-26.458 2.15,-4.494 4.241,-9.024 6.23,-13.607 1.967,-4.594 3.845,-9.236 5.598,-13.939 3.511,-9.402 6.502,-19.072 8.364,-29.161 l -5.901,3.39 c 4.082,1.417 7.988,2.583 12.005,3.714 3.995,1.117 8,2.168 12.02,3.151 8.035,1.982 16.147,3.591 24.278,5.045 8.135,1.431 16.304,2.658 24.502,3.625 8.207,0.906 16.434,1.582 24.668,2.047 16.473,0.928 32.998,0.679 49.408,-0.611 8.199,-0.725 16.384,-1.563 24.493,-2.916 8.126,-1.21 16.167,-2.915 24.14,-4.791 -16.256,2.103 -32.541,3.415 -48.831,3.644 -8.144,0.096 -16.28,0.033 -24.405,-0.284 -4.06,-0.221 -8.12,-0.369 -12.171,-0.704 -4.055,-0.237 -8.102,-0.591 -12.147,-0.945 -8.084,-0.774 -16.145,-1.752 -24.169,-2.954 -8.031,-1.152 -16.027,-2.536 -23.975,-4.13 -7.95,-1.588 -15.843,-3.438 -23.681,-5.441 -3.918,-1.008 -7.817,-2.081 -11.69,-3.213 -1.934,-0.572 -3.863,-1.157 -5.778,-1.766 -1.901,-0.598 -3.859,-1.234 -5.64,-1.863 l -4.939,-1.744 -0.962,5.134 c -1.747,9.327 -4.669,18.566 -7.994,27.663 -3.353,9.099 -7.216,18.059 -11.322,26.923 -4.148,8.847 -8.489,17.629 -13.059,26.306 -4.548,8.689 -9.361,17.25 -14.198,25.804 -4.84,8.553 -9.826,17.034 -14.928,25.449 -5.067,8.437 -10.201,16.844 -15.458,25.177 C 21.652,-33.016 10.896,-16.483 0,0" /></g><g
           transform="translate(492.0146,219.7174)"
           id="g28"><path
             id="path30"
             style="fill:#b7991c;fill-opacity:1;fill-rule:nonzero;stroke:none"
             d="m 0,0 c 1.316,0.01 2.382,-0.878 2.379,-1.982 0,-0.006 -0.003,-1.511 0.023,-3.985 0.011,-1.094 -1.025,-2 -2.323,-2.037 C 0.066,-8.005 0.054,-8.005 0.041,-8.005" /></g><g
           transform="translate(492.3955,211.6901)"
           id="g32"><path
             id="path34"
             style="fill:#b7991c;fill-opacity:1;fill-rule:nonzero;stroke:none"
             d="m 0,0 c 1.315,0.039 2.4,-0.824 2.422,-1.929 0,-0.006 0.031,-1.51 0.112,-3.983 C 2.569,-7.006 1.554,-7.934 0.257,-8 0.244,-8.001 0.231,-8.002 0.219,-8.002" /></g><g
           transform="translate(492.4834,203.7145)"
           id="g36"><path
             id="path38"
             style="fill:#b7991c;fill-opacity:1;fill-rule:nonzero;stroke:none"
             d="M 0,0 C 1.309,0.149 2.461,-0.62 2.575,-1.72 2.576,-1.726 2.733,-3.222 3.021,-5.679 3.148,-6.766 2.213,-7.775 0.927,-7.95 L 0.889,-7.956" /></g><g
           transform="translate(493.0713,195.8522)"
           id="g40"><path
             id="path42"
             style="fill:#b7991c;fill-opacity:1;fill-rule:nonzero;stroke:none"
             d="M 0,0 C 0.691,0.708 1.896,0.66 2.689,-0.107 2.694,-0.112 3.776,-1.157 5.571,-2.859 6.365,-3.612 6.467,-4.792 5.805,-5.51 5.798,-5.518 5.792,-5.524 5.785,-5.531" /></g><g
           transform="translate(492.0146,227.6461)"
           id="g44"><path
             id="path46"
             style="fill:#b7991c;fill-opacity:1;fill-rule:nonzero;stroke:none"
             d="m 0,0 c 1.316,0.01 2.382,-0.877 2.379,-1.982 0,-0.006 -0.003,-1.511 0.023,-3.985 0.011,-1.094 -1.025,-1.999 -2.323,-2.037 -0.013,0 -0.025,-0.001 -0.038,-0.001" /></g><g
           transform="translate(426.9453,255.8893)"
           id="g48"><path
             id="path50"
             style="fill:#c1a014;fill-opacity:1;fill-rule:nonzero;stroke:none"
             d="m 0,0 c -1.064,-4.332 -1.28,-8.873 -0.562,-13.267 0.708,-4.394 2.349,-8.609 4.689,-12.351 2.36,-3.737 5.499,-6.938 9.079,-9.424 3.596,-2.477 7.666,-4.184 11.874,-5.074 8.44,-1.777 17.339,-0.06 24.384,4.457 7.094,4.471 12.217,11.676 14.222,19.706 2.016,8.024 0.912,16.8 -3.244,24.088 C 56.363,15.446 49.315,21.156 41.033,23.568 36.9,24.765 32.504,25.18 28.165,24.686 23.835,24.179 19.556,22.838 15.715,20.65 11.888,18.452 8.452,15.509 5.757,11.966 3.054,8.429 1.104,4.322 0,0 m 0,0 c 2.154,8.659 7.704,16.449 15.358,21.246 7.598,4.856 17.213,6.675 26.279,4.734 4.519,-0.968 8.896,-2.82 12.755,-5.494 3.844,-2.682 7.203,-6.132 9.731,-10.145 2.508,-4.021 4.257,-8.548 5.019,-13.268 0.765,-4.718 0.537,-9.597 -0.609,-14.241 -1.178,-4.634 -3.271,-9.049 -6.172,-12.85 -2.887,-3.811 -6.574,-6.975 -10.679,-9.34 -4.119,-2.358 -8.713,-3.809 -13.369,-4.364 -4.666,-0.544 -9.4,-0.108 -13.844,1.168 -8.912,2.567 -16.535,8.708 -20.944,16.575 C -0.963,-18.139 -2.182,-8.652 0,0" /></g><g
           transform="translate(364,351.7081)"
           id="g52"><path
             id="path54"
             style="fill:#4d4d4d;fill-opacity:1;fill-rule:nonzero;stroke:none"
             d="m 0,0 c 4.482,2.34 9.275,4.005 14.093,5.535 4.837,1.48 9.768,2.653 14.742,3.607 9.961,1.83 20.101,2.741 30.234,2.754 10.017,-0.034 20.072,-0.19 30.171,-1.403 5.041,-0.627 10.053,-1.572 14.944,-2.844 4.886,-1.301 9.687,-2.784 14.411,-4.551 -5.02,0.482 -9.98,1.194 -14.933,1.676 C 98.713,5.289 93.8,5.658 88.871,5.814 79.021,6.128 69.053,5.879 59.075,5.9 49.209,5.864 39.352,5.39 29.503,4.463 19.662,3.46 9.828,2.142 0,0" /></g><g
           transform="translate(583,432.4537)"
           id="g56"><path
             id="path58"
             style="fill:#4d4d4d;fill-opacity:1;fill-rule:nonzero;stroke:none"
             d="M 0,0 C 3.545,-4.78 6.034,-10.459 7.342,-16.441 8.693,-22.424 8.86,-28.694 8.066,-34.833 7.243,-40.973 5.43,-46.997 2.682,-52.607 -0.093,-58.191 -3.755,-63.453 -8.63,-67.661 c -2.397,-2.108 -5.241,-3.901 -8.129,-5.28 -2.86,-1.348 -5.737,-2.421 -8.655,-3.273 -5.825,-1.721 -11.738,-2.802 -17.689,-3.397 -5.948,-0.576 -11.942,-0.669 -17.874,-0.068 -5.907,0.634 -11.832,1.893 -17.13,4.474 5.668,-1.553 11.479,-1.962 17.235,-1.811 5.759,0.154 11.484,0.85 17.109,1.945 5.62,1.101 11.164,2.59 16.442,4.556 2.632,0.988 5.196,2.1 7.552,3.399 2.305,1.316 4.251,2.962 6.131,4.843 3.695,3.777 6.755,8.327 9.163,13.207 2.412,4.884 4.267,10.089 5.455,15.472 C 3.399,-22.814 3.202,-11.442 0,0" /></g><g
           transform="translate(462,516.526)"
           id="g60"><path
             id="path62"
             style="fill:#4d4d4d;fill-opacity:1;fill-rule:nonzero;stroke:none"
             d="m 0,0 c 5.426,-1.176 10.682,-3.38 15.532,-6.327 4.856,-2.952 9.257,-6.709 13.101,-10.972 7.663,-8.58 13.014,-19.13 15.888,-30.261 1.433,-5.577 2.266,-11.325 2.272,-17.174 -0.01,-2.927 -0.238,-5.875 -0.788,-8.848 -0.295,-1.484 -0.674,-2.973 -1.199,-4.465 -0.269,-0.746 -0.556,-1.491 -0.914,-2.235 -0.342,-0.747 -0.794,-1.5 -1.181,-2.099 -1.583,-2.574 -3.6,-4.884 -5.773,-6.878 -2.192,-1.991 -4.566,-3.661 -7.012,-5.115 -4.914,-2.876 -10.079,-5.011 -15.396,-6.641 4.481,3.293 8.953,6.476 12.957,10.006 4.014,3.526 7.38,7.41 9.517,11.847 0.29,0.593 0.499,1.045 0.681,1.567 0.198,0.51 0.36,1.063 0.513,1.621 0.299,1.125 0.509,2.323 0.652,3.546 0.312,2.447 0.347,4.998 0.253,7.554 -0.207,5.125 -1.046,10.294 -2.312,15.346 -2.559,10.107 -6.855,19.822 -12.966,28.348 C 17.745,-12.616 9.675,-5.42 0,0" /></g><g
           transform="translate(351.8325,372.7814)"
           id="g64"><path
             id="path66"
             style="fill:#4d4d4d;fill-opacity:1;fill-rule:nonzero;stroke:none"
             d="m 0,0 c -1.081,-5.856 -3.049,-11.564 -5.979,-16.92 -2.934,-5.333 -6.967,-10.315 -12.114,-14.122 -5.143,-3.799 -11.267,-6.263 -17.356,-7.431 -3.052,-0.586 -6.098,-0.951 -9.105,-1.108 -1.501,-0.098 -2.999,-0.133 -4.482,-0.15 l -4.527,-0.035 c -12.405,0.054 -24.284,3.913 -34.582,10.046 -5.141,3.093 -9.911,6.839 -13.881,11.326 -1.975,2.246 -3.74,4.683 -5.162,7.301 -1.392,2.628 -2.455,5.442 -2.895,8.338 0.924,-2.78 2.3,-5.341 3.99,-7.654 1.666,-2.328 3.623,-4.428 5.751,-6.319 4.25,-3.796 9.091,-6.873 14.182,-9.348 10.177,-4.914 21.479,-7.647 32.438,-7.144 0.69,0.056 1.345,0.059 2.061,0.158 l 2.143,0.269 4.233,0.571 c 2.795,0.407 5.531,0.862 8.181,1.49 5.319,1.189 10.254,3.086 14.73,5.903 4.466,2.829 8.462,6.568 12.101,10.847 C -6.639,-9.69 -3.376,-4.911 0,0" /></g><g
           transform="translate(426.6963,143.9606)"
           id="g68"><path
             id="path70"
             style="fill:#000000;fill-opacity:1;fill-rule:nonzero;stroke:none"
             d="m 0,0 c -2.598,1.97 -4.401,4.566 -5.839,7.442 -0.445,0.89 -0.817,1.817 -1.235,2.753 -0.3,-0.253 -0.347,-0.628 -0.483,-0.949 -1.41,-3.346 -3.265,-6.383 -6.056,-8.774 -0.118,-0.102 -0.245,-0.193 -0.368,-0.288 -0.177,0.087 -0.329,-0.314 -0.516,-0.026 0.955,1.468 1.704,3.035 2.271,4.691 0.238,0.238 0.321,0.521 0.285,0.894 -0.231,-0.201 -0.406,-0.363 -0.308,-0.644 -0.494,-0.527 -0.782,-1.191 -1.2,-1.77 -1.744,-2.417 -3.805,-4.539 -5.999,-6.543 -1.798,-1.642 -3.668,-3.197 -5.61,-4.666 -0.064,0.068 -0.127,0.135 -0.19,0.201 1.258,1.62 2.184,3.398 2.567,5.453 -2.629,-4.071 -6.373,-6.736 -10.725,-8.656 0.672,1.188 1.646,2.144 2.313,3.333 -4.063,-3.289 -8.385,-6.159 -13.099,-8.418 -0.131,0.05 -0.325,-0.02 -0.366,0.196 0.687,0.751 1.374,1.503 2.061,2.255 0.341,0.182 0.463,0.522 0.719,0.878 -0.378,-0.032 -0.546,-0.18 -0.676,-0.389 -1.942,-1.618 -4.2,-2.676 -6.5,-3.653 -1.204,-0.511 -2.432,-0.966 -3.685,-1.35 -0.112,0.062 -0.286,-10e-4 -0.345,0.17 1.186,1.033 1.894,2.315 2.142,4.089 -2.305,-2.276 -4.87,-3.776 -7.596,-5.024 -0.365,0.083 -0.197,0.33 -0.165,0.535 l 0.015,0.017 c 0.114,0.005 0.17,0.066 0.171,0.179 0.27,0.304 0.54,0.607 0.805,0.916 0.037,0.042 0.047,0.108 0.114,0.275 -4.912,-1.9 -9.899,-3.051 -15.139,-2.972 1.59,0.528 3.242,0.928 4.574,2.356 -7.569,-1.604 -14.915,-1.032 -22.24,0.47 1.548,0.262 3.114,0.253 4.683,0.371 -0.059,0.353 -0.329,0.257 -0.518,0.288 -10.103,1.656 -19.446,5.209 -27.839,11.138 -0.583,0.412 -1.14,0.862 -1.71,1.293 0.027,0.057 0.054,0.114 0.081,0.17 l 3.87,-1.342 c -7.939,5.008 -13.685,11.829 -17.272,20.477 0.022,0.196 -0.146,0.395 0.011,0.589 0.24,-0.064 0.31,-0.284 0.434,-0.459 0.734,-1.036 1.473,-2.07 2.21,-3.106 0.103,-0.246 0.241,-0.457 0.541,-0.567 0.044,0.263 -0.084,0.396 -0.261,0.506 -1.409,2.496 -2.749,5.025 -3.76,7.717 -0.669,1.783 -1.216,3.597 -1.54,5.475 -0.079,0.459 -0.127,0.92 -0.097,1.468 0.425,-0.182 0.658,-0.513 0.949,-0.762 0.089,-0.254 0.253,-0.385 0.559,-0.386 -0.053,0.336 -0.106,0.603 -0.348,0.787 -1.132,2.522 -1.756,5.192 -2.259,7.894 -0.273,1.473 -0.526,2.949 -0.627,4.447 0.095,0.135 0.016,0.374 0.252,0.425 0.367,-0.699 0.734,-1.399 1.101,-2.098 0.093,-0.327 0.146,-0.681 0.573,-0.867 0.073,0.461 -0.091,0.783 -0.265,1.101 -1.055,3.933 -1.766,7.915 -1.777,12.003 -0.002,0.878 0.081,1.746 0.178,2.615 0.17,0.032 0.267,-0.086 0.376,-0.179 0.084,-1.086 0.293,-2.151 0.548,-3.208 0.002,-0.514 0.121,-0.982 0.563,-1.441 0.071,0.59 -0.057,1.035 -0.203,1.479 -0.013,0.1 -0.025,0.201 -0.039,0.301 0.069,0.108 0.049,0.195 -0.062,0.259 -0.413,4.005 -0.077,7.929 1.271,11.742 0.052,0.147 0.118,0.287 0.178,0.43 0.081,-0.074 0.162,-0.149 0.242,-0.225 -0.254,-2.309 -0.277,-4.615 0.113,-6.915 0.036,-0.214 0.06,-0.435 0.128,-0.64 0.056,-0.167 0.002,-0.381 0.235,-0.534 0,0.575 0.003,1.117 0,1.659 -0.012,1.882 0.171,3.741 0.523,5.591 0.175,0.916 0.133,1.867 0.346,2.785 0.791,3.411 2.726,6.032 5.682,7.826 4.449,2.702 9.122,2.939 13.916,0.938 0.137,-0.057 0.264,-0.138 0.379,-0.343 -0.343,0.033 -0.687,0.077 -1.03,0.097 -4.944,0.295 -9.09,-1.291 -12.222,-5.224 -0.68,-0.854 -1.197,-1.81 -1.629,-3.075 2.539,2.198 5.226,3.012 8.307,2.128 -2.687,-0.384 -4.778,-1.68 -6.217,-4.031 1.365,0.802 2.774,1.468 4.354,1.68 0.002,-0.068 0.004,-0.135 0.006,-0.202 -0.585,-0.296 -1.162,-0.603 -1.707,-0.972 -1.412,-0.955 -2.307,-2.252 -2.68,-3.92 -0.258,-1.154 -0.365,-2.311 -0.265,-3.602 1.705,1.51 3.576,1.942 5.854,1.53 -0.511,-0.235 -0.854,-0.373 -1.179,-0.545 -1.777,-0.938 -2.738,-2.418 -2.867,-4.418 -0.134,-2.086 0.481,-3.96 1.773,-5.585 2.237,-2.815 4.866,-5.193 8.003,-6.981 0.341,-0.194 0.667,-0.436 1.251,-0.542 -1.832,2.543 -3.043,5.208 -3.702,8.116 0.081,0.132 -0.023,0.366 0.224,0.407 2.492,-5.316 6.449,-9.209 11.603,-11.935 0.426,-0.225 0.843,-0.492 1.427,-0.588 -0.625,1.259 -1.089,2.498 -1.458,3.811 0.388,0.107 0.486,-0.169 0.63,-0.331 1.477,-1.665 3.088,-3.182 4.918,-4.458 0.846,-0.59 1.73,-1.116 2.673,-1.537 0.189,-0.084 0.368,-0.258 0.658,-0.122 -0.663,0.902 -1.377,1.758 -1.897,2.742 0.024,0.119 -0.028,0.188 -0.141,0.218 l -0.011,0.021 c 0.03,0.143 -0.029,0.333 0.197,0.372 1.256,-0.898 2.603,-1.598 4.133,-1.912 2.002,-0.41 3.915,-0.093 5.772,0.69 2.566,1.081 4.605,2.859 6.426,4.915 1.226,1.384 2.317,2.876 3.221,4.488 2.542,4.543 6.006,8.286 9.972,11.601 1.272,1.063 2.598,2.057 3.956,3.007 0.224,0.158 0.506,0.254 0.652,0.572 -0.297,0.186 -0.509,-0.136 -0.758,-0.119 -0.115,0.063 -0.291,0 -0.352,0.171 6.677,3.987 13.77,6.913 21.468,8.199 9.638,1.609 18.979,0.66 27.9,-3.509 0.79,-0.369 1.539,-0.824 2.314,-1.228 0.182,-0.093 0.328,-0.307 0.617,-0.21 0.028,0.541 0.038,1.094 0.094,1.642 0.025,0.236 0.089,0.519 0.397,0.565 0.247,0.038 0.403,-0.147 0.531,-0.324 0.216,-0.299 0.412,-0.61 0.632,-0.94 0.182,0.301 0.329,0.578 0.509,0.831 0.16,0.223 0.332,0.512 0.663,0.414 0.314,-0.093 0.348,-0.425 0.382,-0.696 0.042,-0.339 0.027,-0.686 0.039,-1.03 0.007,-0.179 -0.071,-0.371 0.086,-0.556 0.107,0.022 0.235,0.03 0.347,0.075 5.549,2.215 11.327,3.502 17.257,4.049 12.172,1.122 23.693,-1.006 34.375,-7.126 0.053,-0.031 0.099,-0.075 0.149,-0.113 -0.002,-0.139 -0.121,-0.167 -0.211,-0.222 -0.062,0.016 -0.122,0.033 -0.184,0.049 -0.344,0.287 -0.735,0.417 -1.318,0.417 0.351,-0.326 0.58,-0.57 0.934,-0.639 4.745,-3.214 8.95,-6.998 12.322,-11.661 0.696,-0.963 1.304,-1.982 1.904,-3.006 1.491,-2.551 3.258,-4.883 5.483,-6.846 0.963,-0.848 1.995,-1.603 3.128,-2.213 3.68,-1.978 7.274,-1.959 10.769,0.45 0.174,-0.025 0.256,0.082 0.316,0.219 l 0.035,0.029 c 0.125,-0.044 0.179,-0.149 0.224,-0.262 -0.596,-1.1 -1.326,-2.108 -2.115,-3.078 0.25,-0.23 0.425,-0.02 0.597,0.058 2.221,0.999 4.11,2.472 5.851,4.15 0.807,0.776 1.573,1.591 2.364,2.414 -0.221,-1.408 -0.756,-2.696 -1.303,-4.01 5.844,2.673 10.294,6.771 12.998,12.669 0.207,-0.058 0.126,-0.266 0.205,-0.391 -0.609,-2.696 -1.63,-5.216 -3.213,-7.494 -0.143,-0.056 -0.238,-0.144 -0.217,-0.314 l -0.028,-0.039 c -0.205,-0.092 -0.384,-0.259 -0.224,-0.455 0.106,-0.13 0.314,0.023 0.441,0.147 0.019,0.019 0.023,0.054 0.034,0.081 1.266,0.809 2.501,1.672 3.571,2.724 1.779,1.748 3.61,3.46 4.95,5.597 1.093,1.744 1.494,3.633 0.987,5.648 -0.378,1.498 -1.291,2.615 -2.675,3.325 -0.329,0.169 -0.674,0.308 -1.016,0.461 1.562,0.646 3.822,0.103 5.544,-1.33 0.498,3.675 -0.793,6.287 -3.276,7.706 -0.434,0.247 -0.882,0.467 -1.323,0.699 0.06,0.058 0.122,0.115 0.182,0.174 1.548,-0.27 2.967,-0.849 4.273,-1.851 -0.677,1.978 -3.26,3.687 -6.19,4.159 1.614,0.84 5.238,0.633 8.091,-1.937 0.096,0.272 -0.051,0.47 -0.144,0.672 -1.693,3.678 -4.608,5.904 -8.429,7.005 -1.783,0.514 -3.614,0.708 -5.471,0.447 -0.215,-0.029 -0.434,-0.037 -0.68,-0.057 0.115,0.291 0.37,0.322 0.579,0.414 5.753,2.51 12.622,1.07 16.652,-3.492 0.875,-0.991 1.571,-2.095 2.092,-3.311 1.554,-3.631 2.454,-7.396 2.34,-11.37 -0.005,-0.186 0.017,-0.372 0.085,-0.561 0.686,2.492 0.582,5.032 0.442,7.575 0.095,0.135 0.003,0.381 0.252,0.426 0.93,-2.392 1.393,-4.883 1.511,-7.438 0.066,-1.397 0.045,-2.793 -0.082,-4.187 -0.112,-0.065 -0.129,-0.152 -0.058,-0.259 -0.019,-0.167 -0.037,-0.334 -0.055,-0.502 -0.17,-0.502 -0.297,-1.006 -0.124,-1.542 0.288,0.472 0.547,0.942 0.501,1.512 0.371,1.485 0.549,2.997 0.607,4.53 0.385,-1.586 0.515,-3.198 0.454,-4.815 -0.149,-3.85 -0.803,-7.623 -1.835,-11.332 -0.261,-0.277 -0.241,-0.607 -0.172,-0.944 l -0.058,-0.041 0.049,0.049 c 0.239,0.114 0.372,0.296 0.371,0.567 0.497,0.961 0.994,1.921 1.491,2.882 -0.34,-4.449 -1.026,-8.791 -2.715,-12.915 -0.057,-0.143 -0.085,-0.297 -0.128,-0.446 -0.135,-0.101 -0.231,-0.256 -0.103,-0.377 0.093,-0.088 0.203,0.053 0.26,0.163 0.373,0.149 0.543,0.589 1.009,0.709 0.04,-1.103 -0.221,-2.127 -0.469,-3.143 -0.905,-3.702 -2.486,-7.125 -4.355,-10.426 -0.199,-0.352 -0.39,-0.71 -0.586,-1.065 -0.188,-0.154 -0.391,-0.301 -0.267,-0.607 0.197,0.126 0.34,0.268 0.381,0.487 0.972,1.178 1.824,2.442 2.664,3.714 0.251,-0.037 0.154,-0.26 0.216,-0.4 -2.074,-5.205 -5.091,-9.8 -8.973,-13.83 -2.355,-2.444 -4.983,-4.551 -7.883,-6.318 -0.184,-0.113 -0.363,-0.237 -0.494,-0.489 1.309,0.448 2.616,0.895 3.924,1.343 0.022,-0.062 0.045,-0.124 0.068,-0.187 -8.911,-6.821 -19.049,-10.73 -30.078,-12.583 0.718,-0.279 1.47,-0.171 2.203,-0.228 0.759,-0.059 1.518,-0.121 2.274,-0.274 -7.24,-1.5 -14.497,-2.059 -21.808,-0.513 0.429,-0.846 0.863,-1.074 4.337,-2.278 -3.204,-0.327 -9.641,0.764 -14.546,2.729 -0.198,0.202 -0.451,0.405 -0.687,0.165 -0.116,-0.118 0.108,-0.313 0.298,-0.379 0.392,-0.426 0.783,-0.851 1.173,-1.277 -0.032,-0.258 -0.251,-0.187 -0.405,-0.23 -2.668,1.231 -5.216,2.646 -7.307,4.762 -0.031,0.169 -0.18,0.309 -0.298,0.234 -0.219,-0.14 -0.151,-0.342 0.037,-0.499 0.344,-1.564 1.127,-2.858 2.388,-3.882 -3.908,1.239 -7.71,2.661 -10.963,5.236 -0.082,0.246 -0.281,0.324 -0.533,0.465 0.05,-0.294 0.111,-0.453 0.329,-0.483 0.707,-1.036 1.59,-1.92 2.453,-2.82 -0.052,-0.191 -0.232,-0.138 -0.359,-0.185 -4.528,2.18 -8.723,4.881 -12.593,8.085 -0.141,0.214 -0.325,0.585 -0.567,0.356 -0.238,-0.225 0.118,-0.43 0.327,-0.578 0.038,-0.037 0.066,-0.081 0.087,-0.131 -0.002,-0.114 0.063,-0.175 0.165,-0.206 l 0.004,-0.005 c -0.011,-0.12 0.05,-0.184 0.163,-0.204 0.558,-0.707 1.117,-1.413 1.693,-2.142 -2.335,0.177 -8.161,4.692 -10.32,7.969 0.014,0.109 -0.025,0.182 -0.14,0.201 L 8.8,-2.596 C 8.786,-2.36 8.687,-2.122 8.438,-2.211 8.286,-2.265 8.354,-2.544 8.429,-2.719 c 0.022,-0.052 0.08,-0.09 0.122,-0.134 0.438,-1.564 1.143,-2.999 2.094,-4.314 -0.011,-0.112 0.035,-0.182 0.151,-0.196 0.036,-0.038 0.065,-0.081 0.086,-0.13 C 10.849,-7.614 10.768,-7.689 10.651,-7.728 7.241,-5.129 4.022,-2.32 1.169,0.892 -0.016,2.225 -1.05,3.666 -1.962,5.196 -1.979,5.28 -1.975,5.38 -2.02,5.446 -2.075,5.527 -2.107,5.713 -2.238,5.64 -2.353,5.575 -2.293,5.422 -2.218,5.322 -2.184,5.278 -2.122,5.257 -2.072,5.225 -1.66,3.598 -0.892,2.127 -0.055,0.688 0.085,0.449 0.239,0.219 0.387,-0.017 0.258,-0.011 0.129,-0.006 0,0" /></g><g
           transform="translate(322.1274,334.9659)"
           id="g72"><path
             id="path74"
             style="fill:#000000;fill-opacity:1;fill-rule:nonzero;stroke:none"
             d="m 0,0 c 4.532,-13.443 7.926,-27.174 10.954,-40.975 2.977,-13.814 5.393,-27.749 7.215,-41.778 0.437,-3.51 0.915,-7.013 1.264,-10.538 l 1.032,-10.567 c 0.481,-7.074 1.024,-14.134 1.097,-21.239 0.087,-3.546 0.169,-7.089 0.024,-10.648 l -0.156,-5.326 c -0.059,-1.773 -0.071,-3.543 -0.247,-5.32 -0.339,-3.55 -0.581,-7.089 -1.001,-10.613 -0.568,-3.523 -1.154,-7.026 -1.842,-10.492 -0.199,3.559 -0.295,7.08 -0.374,10.581 l -0.711,10.507 c -0.071,1.744 -0.254,3.492 -0.418,5.238 l -0.491,5.23 c -0.188,1.742 -0.269,3.482 -0.481,5.224 l -0.581,5.221 c -0.68,6.96 -1.6,13.91 -2.367,20.862 l -1.332,10.423 c -0.385,3.479 -0.889,6.95 -1.347,10.423 L 4.775,-42.035 C 3.016,-28.083 1.268,-14.118 0,0" /></g><g
           transform="translate(351.8325,372.7814)"
           id="g76"><path
             id="path78"
             style="fill:#000000;fill-opacity:1;fill-rule:nonzero;stroke:none"
             d="m 0,0 c -0.828,-6.626 -2.998,-13.102 -6.136,-19.115 -3.156,-6.006 -7.526,-11.491 -12.971,-15.825 -5.462,-4.308 -11.978,-7.318 -18.781,-8.914 -6.818,-1.61 -13.865,-1.793 -20.736,-1.2 -6.892,0.626 -13.62,1.976 -20.216,4.105 -6.586,2.118 -13.041,5.034 -18.892,9.095 -5.831,4.067 -10.949,9.377 -14.674,15.576 -3.735,6.197 -6.003,13.181 -7.001,20.207 -0.977,7.047 -0.76,14.141 0.319,21.038 0.554,3.45 1.316,6.858 2.304,10.214 1.016,3.371 2.137,6.633 3.884,9.995 1.463,2.754 2.914,5.884 4.516,8.877 1.588,3.02 3.326,5.991 5.215,8.877 3.761,5.778 8.233,11.18 13.462,15.8 5.214,4.619 11.197,8.455 17.683,11.008 6.488,2.538 13.365,3.923 20.209,4.16 6.848,0.198 13.644,-0.536 20.201,-2.069 3.28,-0.766 6.509,-1.687 9.687,-2.738 3.163,-1.098 6.281,-2.296 9.335,-3.632 -6.406,1.839 -12.88,3.353 -19.412,4.199 -6.523,0.856 -13.102,1.086 -19.528,0.342 -6.426,-0.679 -12.684,-2.361 -18.428,-5.058 -5.731,-2.719 -10.997,-6.338 -15.522,-10.778 -4.539,-4.424 -8.401,-9.536 -11.743,-14.995 -1.669,-2.735 -3.184,-5.573 -4.636,-8.469 -1.47,-2.908 -2.741,-5.851 -4.319,-9.013 -1.258,-2.578 -2.311,-5.636 -3.158,-8.645 -0.847,-3.036 -1.495,-6.143 -1.951,-9.267 -0.922,-6.244 -1.088,-12.59 -0.199,-18.725 0.85,-6.133 2.765,-12.058 5.875,-17.288 1.527,-2.629 3.361,-5.074 5.42,-7.328 2.074,-2.245 4.4,-4.265 6.877,-6.119 10.002,-7.364 22.771,-11.195 35.385,-13.134 6.334,-0.873 12.754,-0.926 18.985,0.132 6.23,1.036 12.24,3.35 17.5,6.936 2.654,1.756 5.1,3.85 7.345,6.161 2.235,2.324 4.227,4.898 6.042,7.611 1.805,2.721 3.373,5.618 4.719,8.628 C -1.976,-6.347 -0.831,-3.226 0,0" /></g><g
           transform="translate(351.8325,415.5114)"
           id="g80"><path
             id="path82"
             style="fill:#000000;fill-opacity:1;fill-rule:nonzero;stroke:none"
             d="m 0,0 -3.151,4.347 c -0.985,1.496 -1.868,3.062 -2.811,4.6 -0.885,1.57 -1.595,3.232 -2.404,4.853 -0.74,1.651 -1.311,3.375 -1.976,5.071 -2.371,6.888 -3.223,14.329 -2.728,21.684 0.536,7.364 2.492,14.608 5.448,21.379 2.956,6.785 6.995,13.056 11.662,18.758 4.668,5.711 9.994,10.871 15.817,15.384 5.811,4.528 12.073,8.479 18.68,11.78 6.606,3.302 13.593,5.875 20.809,7.675 1.793,0.495 3.629,0.825 5.462,1.164 1.822,0.39 3.688,0.573 5.539,0.822 3.732,0.473 7.627,0.554 11.408,0.291 7.604,-0.548 14.992,-2.478 21.91,-5.312 6.909,-2.869 13.422,-6.556 19.387,-10.942 5.957,-4.391 11.489,-9.338 16.369,-14.875 4.906,-5.508 9.23,-11.543 12.749,-18.053 3.491,-6.509 6.276,-13.495 7.58,-20.876 1.308,-7.339 1.087,-15.152 -1.5,-22.277 C 155.688,18.334 150.625,12.335 144.588,8.234 141.563,6.171 138.334,4.47 134.985,3.133 131.623,1.823 128.183,0.786 124.698,0 c 6.701,2.427 13.201,5.525 18.553,10.004 5.35,4.42 9.508,10.18 11.268,16.698 1.877,6.469 1.69,13.409 0.094,19.996 -1.59,6.605 -4.341,12.956 -7.871,18.845 -7.145,11.744 -16.878,21.96 -28.107,29.841 -5.608,3.949 -11.631,7.281 -17.932,9.787 -6.286,2.534 -12.885,4.208 -19.522,4.66 -3.331,0.24 -6.599,0.195 -9.944,-0.214 -1.683,-0.222 -3.374,-0.371 -5.043,-0.726 l -2.511,-0.461 c -0.838,-0.146 -1.661,-0.386 -2.494,-0.57 -6.65,-1.542 -13.131,-3.9 -19.363,-6.803 C 29.353,95.243 18.02,86.875 8.772,76.657 4.154,71.537 0.231,65.815 -2.905,59.701 -6.036,53.584 -8.229,46.979 -9.184,40.152 -10.196,33.333 -9.879,26.284 -8.223,19.478 -6.596,12.661 -3.693,6.114 0,0" /></g><g
           transform="translate(509.6436,456.6139)"
           id="g84"><path
             id="path86"
             style="fill:#000000;fill-opacity:1;fill-rule:nonzero;stroke:none"
             d="m 0,0 c 4.601,2.083 9.439,3.638 14.363,4.896 4.933,1.234 9.986,2.083 15.12,2.497 5.133,0.353 10.353,0.25 15.558,-0.55 5.19,-0.818 10.377,-2.373 15.165,-4.917 4.801,-2.505 9.152,-6.017 12.65,-10.222 3.513,-4.194 6.139,-9.066 8.049,-14.034 3.711,-9.672 6.184,-20.05 6.236,-30.729 -0.018,-5.325 -0.645,-10.7 -2.027,-15.913 -1.436,-5.195 -3.564,-10.235 -6.492,-14.793 -2.932,-4.548 -6.535,-8.671 -10.793,-12.043 -2.129,-1.686 -4.401,-3.209 -6.877,-4.456 -2.533,-1.289 -5.026,-2.136 -7.528,-2.912 -10.01,-2.961 -20.275,-4.21 -30.553,-4 -5.129,0.207 -10.274,0.744 -15.234,2.116 -4.938,1.343 -9.768,3.429 -13.637,6.699 2.182,-1.265 4.48,-2.256 6.853,-2.976 2.363,-0.742 4.783,-1.259 7.222,-1.596 4.881,-0.677 9.824,-0.747 14.729,-0.391 9.794,0.673 19.563,2.759 28.643,6.037 2.25,0.832 4.481,1.752 6.366,2.859 1.946,1.135 3.825,2.48 5.565,3.994 3.482,3.038 6.455,6.673 8.85,10.632 1.188,1.989 2.196,4.08 3.103,6.211 0.898,2.138 1.58,4.363 2.184,6.607 1.092,4.522 1.669,9.193 1.641,13.91 -0.061,9.444 -2.161,18.947 -5.439,28.071 -1.554,4.446 -3.659,8.582 -6.446,12.227 C 64.5,-9.129 61.029,-6.053 57.069,-3.65 53.102,-1.257 48.662,0.474 44.003,1.577 39.35,2.726 34.485,3.269 29.584,3.368 24.676,3.535 19.721,3.226 14.776,2.652 12.303,2.371 9.831,2.005 7.37,1.552 4.9,1.131 2.446,0.608 0,0" /></g><g
           transform="translate(529.0664,351.7081)"
           id="g88"><path
             id="path90"
             style="fill:#000000;fill-opacity:1;fill-rule:nonzero;stroke:none"
             d="m 0,0 c -1.049,-14.491 -2.675,-28.835 -4.338,-43.164 -1.695,-14.321 -3.531,-28.602 -5.352,-42.871 -1.813,-14.269 -3.66,-28.52 -5.249,-42.79 -0.79,-7.134 -1.596,-14.273 -2.106,-21.43 -0.596,-7.162 -0.949,-14.32 -0.815,-21.586 -1.902,7.036 -2.611,14.357 -3.113,21.621 -0.205,3.64 -0.281,7.279 -0.361,10.923 -0.023,3.637 0.002,7.279 0.119,10.91 0.434,14.536 1.753,28.997 3.592,43.368 1.844,14.372 4.233,28.658 7.096,42.849 C -7.597,-27.994 -4.325,-13.879 0,0" /></g><g
           transform="translate(315.3926,283.7115)"
           id="g92"><path
             id="path94"
             style="fill:#000000;fill-opacity:1;fill-rule:nonzero;stroke:none"
             d="m 0,0 c -8.606,2.562 -17.342,4.622 -26.083,6.587 -8.749,1.942 -17.555,3.59 -26.378,5.069 -17.649,2.956 -35.449,4.834 -53.252,5.658 -17.806,0.694 -35.636,0.21 -53.209,-2.017 -8.78,-1.148 -17.465,-2.814 -26.027,-4.897 -8.539,-2.17 -16.912,-4.87 -25.058,-8.104 l 1.762,6.025 c 12.034,-16.772 23.618,-33.732 34.762,-51.048 5.585,-8.641 11.078,-17.345 16.46,-26.122 5.372,-8.782 10.71,-17.589 15.807,-26.547 10.21,-17.9 19.941,-36.108 28.653,-54.882 4.351,-9.391 8.357,-18.961 11.92,-28.742 3.548,-9.782 6.595,-19.822 8.494,-30.263 l -5.344,2.906 c 4.132,1.625 8.127,3.014 12.219,4.379 4.077,1.343 8.174,2.604 12.291,3.783 8.228,2.384 16.523,4.497 24.867,6.371 16.683,3.784 33.603,6.448 50.605,8.111 17.003,1.657 34.114,2.132 51.148,1.348 17.037,-0.742 33.981,-3.033 50.568,-6.66 -8.409,1.202 -16.823,2.259 -25.279,2.798 l -3.165,0.247 -3.171,0.162 -6.338,0.305 -6.343,0.127 -3.17,0.06 -3.17,-0.012 c -16.908,0.038 -33.775,-1.283 -50.502,-3.436 -8.363,-1.097 -16.683,-2.496 -24.958,-4.094 -8.273,-1.611 -16.513,-3.383 -24.679,-5.454 -8.168,-2.053 -16.276,-4.339 -24.291,-6.884 -4.015,-1.25 -7.989,-2.618 -11.953,-3.991 -3.938,-1.378 -7.939,-2.845 -11.683,-4.385 l -4.411,-1.814 -0.933,4.72 c -1.923,9.73 -4.986,19.361 -8.58,28.803 -3.592,9.453 -7.717,18.735 -11.995,27.957 -8.657,18.411 -18.374,36.382 -28.584,54.071 -10.175,17.712 -20.794,35.197 -31.815,52.431 -11.056,17.197 -22.259,34.377 -33.918,51.112 l -2.953,4.238 4.715,1.788 c 8.592,3.258 17.362,5.959 26.265,8.044 8.932,1.938 17.936,3.427 26.986,4.378 9.053,0.884 18.124,1.413 27.19,1.475 9.066,0.004 18.116,-0.338 27.131,-1.021 9.01,-0.731 17.99,-1.709 26.914,-3.043 8.924,-1.323 17.789,-2.98 26.6,-4.845 C -34.285,10.885 -16.879,6.159 0,0" /></g><g
           transform="translate(527.9766,283.7115)"
           id="g96"><path
             id="path98"
             style="fill:#000000;fill-opacity:1;fill-rule:nonzero;stroke:none"
             d="m 0,0 c 16.879,6.159 34.285,10.885 51.885,14.692 8.81,1.865 17.676,3.522 26.6,4.845 8.923,1.334 17.904,2.312 26.914,3.043 9.015,0.683 18.066,1.025 27.13,1.021 9.067,-0.062 18.139,-0.591 27.192,-1.475 9.049,-0.951 18.053,-2.44 26.985,-4.378 8.902,-2.085 17.674,-4.786 26.265,-8.044 l 4.716,-1.788 -2.954,-4.238 C 203.074,-13.057 191.87,-30.237 180.815,-47.434 169.794,-64.668 159.176,-82.153 149,-99.865 c -10.21,-17.689 -19.927,-35.66 -28.584,-54.071 -4.277,-9.222 -8.403,-18.504 -11.995,-27.957 -3.594,-9.442 -6.657,-19.073 -8.58,-28.803 l -0.933,-4.72 -4.411,1.814 c -3.744,1.54 -7.744,3.007 -11.683,4.385 -3.963,1.373 -7.937,2.741 -11.953,3.991 -8.015,2.545 -16.123,4.831 -24.292,6.884 -8.165,2.071 -16.405,3.843 -24.677,5.454 -8.276,1.598 -16.595,2.997 -24.959,4.094 -16.727,2.153 -33.594,3.474 -50.501,3.436 l -3.171,0.012 -3.169,-0.06 -6.344,-0.127 -6.338,-0.305 -3.171,-0.162 -3.165,-0.247 c -8.456,-0.539 -16.87,-1.596 -25.278,-2.798 16.586,3.627 33.53,5.918 50.566,6.66 17.035,0.784 34.147,0.309 51.15,-1.348 17.001,-1.663 33.921,-4.327 50.603,-8.111 8.346,-1.874 16.641,-3.987 24.867,-6.371 4.118,-1.179 8.215,-2.44 12.291,-3.783 4.093,-1.365 8.088,-2.754 12.219,-4.379 l -5.343,-2.906 c 1.899,10.441 4.946,20.481 8.494,30.263 3.563,9.781 7.569,19.351 11.92,28.742 8.712,18.774 18.443,36.982 28.654,54.882 5.096,8.958 10.434,17.765 15.806,26.547 5.382,8.777 10.875,17.481 16.46,26.122 11.145,17.316 22.729,34.276 34.762,51.048 l 1.763,-6.025 c -8.148,3.234 -16.52,5.934 -25.059,8.104 -8.561,2.083 -17.247,3.749 -26.027,4.897 -17.572,2.227 -35.402,2.711 -53.209,2.017 C 87.91,16.49 70.109,14.612 52.461,11.656 43.639,10.177 34.832,8.529 26.083,6.587 17.342,4.622 8.605,2.562 0,0" /></g><g
           transform="translate(439.6895,245.5524)"
           id="g100"><path
             id="path102"
             style="fill:#000000;fill-opacity:1;fill-rule:nonzero;stroke:none"
             d="M 0,0 C 0,11.176 6.716,20.235 15,20.235 23.284,20.235 30,11.176 30,0 30,-11.175 23.284,-20.234 15,-20.234 6.716,-20.234 0,-11.175 0,0" /></g><g
           transform="translate(285.2407,89.9078)"
           id="g104"><path
             id="path106"
             style="fill:#000000;fill-opacity:1;fill-rule:nonzero;stroke:none"
             d="m 0,0 c 0.737,-13.753 -5.373,-25.261 -13.645,-25.703 -8.272,-0.443 -15.575,10.347 -16.312,24.099 -0.736,13.752 2.373,20.26 10.645,20.704 C -11.04,19.542 -0.736,13.753 0,0" /></g><g
           transform="translate(294.8779,73.8795)"
           id="g108"><path
             id="path110"
             style="fill:#000000;fill-opacity:1;fill-rule:nonzero;stroke:none"
             d="m 0,0 c -19.75,-2.87 -37.363,5.82 -39.338,19.412 -1.975,13.591 6.703,17.733 32.186,29.806 C 18.331,61.29 30.21,43.397 32.186,29.806 34.161,16.215 19.751,2.871 0,0" /></g><g
           transform="translate(308.5757,89.9078)"
           id="g112"><path
             id="path114"
             style="fill:#000000;fill-opacity:1;fill-rule:nonzero;stroke:none"
             d="m 0,0 c 0.736,-13.753 -5.373,-25.261 -13.645,-25.703 -8.272,-0.443 -15.576,10.347 -16.312,24.099 -0.737,13.752 5.373,25.26 13.645,25.704 C -8.04,24.542 -0.737,13.753 0,0" /></g><g
           transform="translate(331.5293,89.9078)"
           id="g116"><path
             id="path118"
             style="fill:#000000;fill-opacity:1;fill-rule:nonzero;stroke:none"
             d="m 0,0 c 0.737,-13.753 -5.373,-25.261 -13.645,-25.703 -8.272,-0.443 -15.575,10.347 -16.312,24.099 -0.736,13.752 4.373,32.26 12.645,32.704 C -9.04,31.542 -0.736,13.753 0,0" /></g><g
           transform="translate(279.1855,83.3375)"
           id="g120"><path
             id="path122"
             style="fill:#ffffff;fill-opacity:1;fill-rule:nonzero;stroke:none"
             d="M 0,0 C 0,0 -8.945,11.242 2.713,22.484" /></g><g
           transform="translate(304.4492,77.9713)"
           id="g124"><path
             id="path126"
             style="fill:#ffffff;fill-opacity:1;fill-rule:nonzero;stroke:none"
             d="M 0,0 C 0,0 -11.38,12.007 -2.516,27.851" /></g><g
           transform="translate(541.5283,89.9078)"
           id="g128"><path
             id="path130"
             style="fill:#000000;fill-opacity:1;fill-rule:nonzero;stroke:none"
             d="m 0,0 c -0.737,-13.753 5.372,-25.261 13.645,-25.703 8.272,-0.443 15.576,10.347 16.312,24.099 C 30.693,12.148 27.584,18.656 19.312,19.1 11.039,19.542 0.736,13.753 0,0" /></g><g
           transform="translate(531.8906,73.8795)"
           id="g132"><path
             id="path134"
             style="fill:#000000;fill-opacity:1;fill-rule:nonzero;stroke:none"
             d="M 0,0 C 19.751,-2.87 37.363,5.82 39.339,19.412 41.313,33.003 32.636,37.145 7.152,49.218 -18.33,61.29 -30.21,43.397 -32.186,29.806 -34.161,16.215 -19.751,2.871 0,0" /></g><g
           transform="translate(518.1934,89.9078)"
           id="g136"><path
             id="path138"
             style="fill:#000000;fill-opacity:1;fill-rule:nonzero;stroke:none"
             d="m 0,0 c -0.736,-13.753 5.373,-25.261 13.646,-25.703 8.272,-0.443 15.575,10.347 16.311,24.099 C 30.693,12.148 24.585,23.656 16.312,24.1 8.04,24.542 0.736,13.753 0,0" /></g><g
           transform="translate(495.2393,89.9078)"
           id="g140"><path
             id="path142"
             style="fill:#000000;fill-opacity:1;fill-rule:nonzero;stroke:none"
             d="m 0,0 c -0.736,-13.753 5.373,-25.261 13.646,-25.703 8.272,-0.443 15.575,10.347 16.311,24.099 C 30.693,12.148 25.585,30.656 17.312,31.1 9.04,31.542 0.736,13.753 0,0" /></g><g
           transform="translate(547.583,83.3375)"
           id="g144"><path
             id="path146"
             style="fill:#ffffff;fill-opacity:1;fill-rule:nonzero;stroke:none"
             d="M 0,0 C 0,0 8.945,11.242 -2.713,22.484" /></g><g
           transform="translate(522.3193,77.9713)"
           id="g148"><path
             id="path150"
             style="fill:#ffffff;fill-opacity:1;fill-rule:nonzero;stroke:none"
             d="M 0,0 C 0,0 11.38,12.007 2.516,27.851" /></g><g
           transform="translate(439.6895,240.4352)"
           id="g152"><path
             id="path154"
             style="fill:#ffffff;fill-opacity:1;fill-rule:nonzero;stroke:none"
             d="m 0,0 c 0,6.14 4.262,11.117 9.52,11.117 5.257,0 9.52,-4.977 9.52,-11.117 0,-6.14 -4.263,-11.117 -9.52,-11.117 C 4.262,-11.117 0,-6.14 0,0" /></g><g
           transform="translate(369.3437,245.5524)"
           id="g156"><path
             id="path158"
             style="fill:#000000;fill-opacity:1;fill-rule:nonzero;stroke:none"
             d="M 0,0 C 0,11.176 6.716,20.235 15,20.235 23.284,20.235 30,11.176 30,0 30,-11.175 23.284,-20.234 15,-20.234 6.716,-20.234 0,-11.175 0,0" /></g><g
           transform="translate(369.3437,240.4352)"
           id="g160"><path
             id="path162"
             style="fill:#ffffff;fill-opacity:1;fill-rule:nonzero;stroke:none"
             d="m 0,0 c 0,6.14 4.262,11.117 9.52,11.117 5.258,0 9.52,-4.977 9.52,-11.117 0,-6.14 -4.262,-11.117 -9.52,-11.117 C 4.262,-11.117 0,-6.14 0,0" /></g><g
           transform="translate(364,351.7081)"
           id="g164"><path
             id="path166"
             style="fill:#000000;fill-opacity:1;fill-rule:nonzero;stroke:none"
             d="m 0,0 c 4.392,2.665 9.152,4.646 13.953,6.481 4.826,1.775 9.772,3.236 14.785,4.429 10.033,2.351 20.338,3.661 30.664,3.837 2.582,0.071 5.164,10e-4 7.745,-0.033 2.578,-0.148 5.16,-0.207 7.728,-0.472 5.146,-0.404 10.256,-1.168 15.316,-2.115 C 100.293,10.119 110.189,7.12 119.479,2.814 109.426,4.738 99.48,6.404 89.493,7.461 84.496,7.933 79.51,8.391 74.509,8.563 69.514,8.792 64.514,8.873 59.52,8.75 49.527,8.586 39.551,7.727 29.623,6.292 19.697,4.82 9.804,2.869 0,0" /></g><g
           transform="translate(491.4648,243.6901)"
           id="g168"><path
             id="path170"
             style="fill:#c1a014;fill-opacity:1;fill-rule:nonzero;stroke:none"
             d="m 0,0 c -0.851,0.009 -1.657,-0.625 -1.825,-1.447 -0.096,-0.397 -0.016,-0.828 -0.017,-1.259 l 0.038,-1.286 0.019,-1.286 c 0.014,-0.439 -0.024,-0.865 0.101,-1.206 0.237,-0.723 0.962,-1.226 1.708,-1.182 0.737,0.002 1.384,0.566 1.537,1.257 0.093,0.309 0.033,0.752 0.048,1.184 l 0.025,1.286 c 0.018,0.428 0.039,0.856 0.074,1.285 l 0.059,0.642 C 1.785,-1.814 1.783,-1.63 1.746,-1.437 1.608,-0.672 0.863,0.015 0,0 m -0.001,0.075 c 0.871,0.037 1.778,-0.503 2.13,-1.394 0.087,-0.219 0.134,-0.463 0.152,-0.695 l 0.05,-0.643 c 0.027,-0.43 0.042,-0.86 0.053,-1.288 L 2.389,-5.233 2.376,-5.877 C 2.375,-6.086 2.351,-6.374 2.275,-6.607 2.002,-7.588 1.026,-8.32 0.023,-8.266 c -0.988,-0.012 -1.92,0.703 -2.173,1.638 -0.065,0.232 -0.091,0.477 -0.085,0.707 l 0.018,0.644 0.038,1.286 0.057,1.286 c 0.039,0.423 0,0.865 0.145,1.301 0.265,0.856 1.099,1.47 1.976,1.479" /></g><g
           transform="translate(511.3428,195.7379)"
           id="g172"><path
             id="path174"
             style="fill:#b7991c;fill-opacity:1;fill-rule:nonzero;stroke:none"
             d="m 0,0 c 1.12,-0.952 1.491,-2.331 0.826,-3.08 -0.003,-0.004 -0.907,-1.024 -2.366,-2.725 -0.647,-0.751 -2.067,-0.611 -3.189,0.31 -0.011,0.009 -0.022,0.017 -0.033,0.026" /></g><g
           transform="translate(501.7539,191.3356)"
           id="g176"><path
             id="path178"
             style="fill:#b7991c;fill-opacity:1;fill-rule:nonzero;stroke:none"
             d="M 0,0 C 0,0 1.783,0.19 2.342,0.403 2.9,0.617 4.002,0.639 4.485,0.202 4.968,-0.235 5.873,-2.032 4.923,-2.991 3.972,-3.95 1.565,-4.031 0.38,-3.93 -0.807,-3.828 0,0 0,0" /></g><g
           transform="translate(460,277.609)"
           id="g180"><path
             id="path182"
             style="fill:#f4d341;fill-opacity:1;fill-rule:nonzero;stroke:none"
             d="m 0,0 c -16.542,0 -30,-13.458 -30,-30 0,-16.542 13.458,-30 30,-30 16.542,0 30,13.458 30,30 C 30,-13.458 16.542,0 0,0 m 0,-64 c -18.748,0 -34,15.252 -34,34 0,18.748 15.252,34 34,34 18.748,0 34,-15.252 34,-34 0,-18.748 -15.252,-34 -34,-34" /></g><g
           transform="translate(491.5361,235.735)"
           id="g184"><path
             id="path186"
             style="fill:#f4d341;fill-opacity:1;fill-rule:nonzero;stroke:none"
             d="m 0,0 h -0.032 c -1.105,0.018 -1.986,0.927 -1.969,2.031 0.039,2.504 0.079,4.025 0.079,4.025 0.027,1.104 0.944,2.009 2.051,1.947 C 1.233,7.975 2.105,7.057 2.076,5.952 2.076,5.946 2.037,4.442 1.999,1.969 1.981,0.875 1.09,0 0,0 M -0.074,-8.002 H -0.08 c -1.105,0.003 -1.997,0.901 -1.994,2.006 0.004,1.424 0.012,2.771 0.024,4.014 0.011,1.098 0.904,1.981 2,1.981 h 0.019 C 1.073,-0.012 1.961,-0.915 1.95,-2.02 1.938,-3.254 1.93,-4.594 1.926,-6.008 1.923,-7.11 1.028,-8.002 -0.074,-8.002 m 0.03,-8.008 c -1.095,0 -1.987,0.88 -2,1.977 -0.016,1.364 -0.025,2.71 -0.03,4.019 -0.004,1.105 0.887,2.004 1.992,2.008 h 0.008 c 1.101,0 1.996,-0.89 2,-1.992 0.005,-1.3 0.014,-2.636 0.03,-3.988 0.013,-1.105 -0.872,-2.011 -1.977,-2.024 z m 0.17,-8.004 c -1.075,0 -1.964,0.855 -1.998,1.937 -0.042,1.33 -0.077,2.677 -0.107,4.023 -0.022,1.105 0.854,2.019 1.958,2.042 h 0.043 c 1.085,0 1.976,-0.868 1.999,-1.958 0.028,-1.331 0.063,-2.664 0.105,-3.98 0.035,-1.105 -0.832,-2.028 -1.936,-2.063 -0.021,-10e-4 -0.043,-10e-4 -0.064,-10e-4 m 0.391,-7.998 c -1.042,0 -1.92,0.807 -1.994,1.862 -0.089,1.296 -0.168,2.648 -0.234,4.041 -0.052,1.103 0.8,2.04 1.903,2.092 1.079,0.04 2.04,-0.799 2.093,-1.903 0.065,-1.361 0.141,-2.686 0.229,-3.953 0.076,-1.103 -0.755,-2.058 -1.857,-2.134 -0.048,-0.003 -0.094,-0.005 -0.14,-0.005 m 10.337,-16.316 c -0.737,0 -1.485,0.081 -2.226,0.24 -1.079,0.233 -1.767,1.296 -1.534,2.376 0.011,0.057 0.026,0.113 0.044,0.168 -0.025,-0.041 -0.05,-0.082 -0.076,-0.121 -0.62,-0.914 -1.865,-1.154 -2.778,-0.535 -1.183,0.802 -2.238,1.778 -3.135,2.903 -0.111,0.141 -0.223,0.301 -0.33,0.479 -0.568,0.947 -0.261,2.175 0.686,2.744 0.099,0.059 0.2,0.109 0.305,0.149 -0.022,-0.004 -0.042,-0.009 -0.063,-0.012 -1.095,-0.199 -2.126,0.532 -2.319,1.619 -0.207,1.164 -0.396,2.547 -0.559,4.109 -0.115,1.099 0.683,2.082 1.781,2.197 1.08,0.108 2.082,-0.681 2.198,-1.781 0.153,-1.468 0.328,-2.755 0.517,-3.824 0.17,-0.956 -0.369,-1.874 -1.24,-2.214 0.81,0.171 1.674,-0.179 2.124,-0.929 l 0.03,-0.047 c 0.643,-0.805 1.4,-1.506 2.247,-2.081 0.745,-0.505 1.042,-1.424 0.792,-2.241 0.424,0.73 1.283,1.137 2.152,0.951 1.026,-0.219 2.049,-0.197 2.989,0.072 0.803,0.226 1.637,-0.07 2.123,-0.691 -0.3,0.747 -0.128,1.634 0.498,2.213 0.619,0.573 1.198,1.288 1.721,2.127 0.586,0.936 1.819,1.222 2.756,0.639 0.937,-0.585 1.222,-1.819 0.638,-2.756 -0.712,-1.141 -1.518,-2.132 -2.398,-2.946 -0.81,-0.749 -2.077,-0.701 -2.826,0.11 -0.038,0.042 -0.075,0.084 -0.109,0.127 0.026,-0.065 0.049,-0.131 0.069,-0.199 0.302,-1.063 -0.314,-2.169 -1.376,-2.472 -0.872,-0.248 -1.781,-0.374 -2.701,-0.374" /></g></g></g></g></svg>